<svg id="Layer_1" data-name="Layer 1" xmlns="http://www.w3.org/2000/svg" xmlns:xlink="http://www.w3.org/1999/xlink" viewBox="0 0 512 512"><defs><linearGradient id="linear-gradient" x1="256" y1="530.16" x2="256" y2="-18.16" gradientUnits="userSpaceOnUse"><stop offset="0" stop-color="#231f20"/><stop offset="1" stop-color="#58595b"/></linearGradient></defs><title>volume_up</title><path d="M311.46,67.33V444.61c0,17.34-9.46,24.35-21,15.62L156.9,359.53h-127A29.88,29.88,0,0,1,0,329.8V182.14a29.85,29.85,0,0,1,29.87-29.67H156.94L290.42,51.76C302,43,311.46,50.09,311.46,67.33ZM477.29,256c0,50.71-27.48,95.05-68.39,119.36l23.67,26.06C480.29,370.41,512,316.84,512,256s-31.71-114.43-79.45-145.42l-23.65,26C449.82,160.92,477.29,205.27,477.29,256Zm-91,94.41L362,323.61c27.94-10.06,48-36.44,48-67.61s-20.1-57.57-48-67.63l24.29-26.78c34.53,17.74,58.41,53.18,58.41,94.41S420.78,332.67,386.27,350.41ZM376.71,256a39.15,39.15,0,0,1-39.29,39.05c-.48,0-.88-.1-1.36-.12V269.07a13.58,13.58,0,0,0,0-26.2v-25.8c.46,0,.88-.14,1.36-.14A39.17,39.17,0,0,1,376.71,256Z" fill-rule="evenodd" fill="rgba(42,47,50, 25%)"/></svg>
